<?xml version="1.0" encoding="utf-8"?>
<!-- Generator: Adobe Illustrator 27.5.0, SVG Export Plug-In . SVG Version: 6.00 Build 0)  -->
<svg version="1.1" id="Capa_1" xmlns="http://www.w3.org/2000/svg" xmlns:xlink="http://www.w3.org/1999/xlink" x="0px" y="0px"
	 viewBox="0 0 425.197 340.158" style="enable-background:new 0 0 425.197 340.158;" xml:space="preserve">
<g>
	<path style="fill:#525774;" d="M316.344,185.165c-0.802,0.175-1.622,0.353-2.44,0.53c-0.454,0.098-0.901,0.196-1.359,0.295
		c-0.798,0.172-1.611,0.346-2.425,0.52c-0.501,0.107-0.997,0.214-1.504,0.321c-0.803,0.171-1.618,0.343-2.435,0.515
		c-0.532,0.112-1.063,0.224-1.601,0.337c-0.825,0.173-1.659,0.347-2.497,0.521c-0.547,0.114-1.096,0.227-1.649,0.342
		c-0.843,0.174-1.691,0.349-2.547,0.524c-0.566,0.116-1.135,0.232-1.707,0.348c-0.867,0.176-1.738,0.353-2.618,0.53
		c-0.571,0.115-1.148,0.23-1.725,0.346c-0.895,0.179-1.791,0.358-2.699,0.538c-0.565,0.112-1.138,0.224-1.708,0.337
		c-0.941,0.185-1.88,0.37-2.834,0.556c-0.505,0.098-1.019,0.197-1.527,0.296c-1.034,0.2-2.065,0.4-3.113,0.601
		c-0.142,0.027-0.287,0.054-0.429,0.082c-3.922,0.749-7.945,1.5-12.052,2.247c-0.527,0.096-1.049,0.192-1.579,0.288
		c-1.026,0.186-2.064,0.37-3.1,0.556c-0.621,0.111-1.24,0.222-1.864,0.333c-1.027,0.182-2.063,0.363-3.101,0.544
		c-0.434,0.076-0.862,0.152-1.297,0.228l32.582,16.219c0.978-1.052,2.222-2.062,3.811-2.981l30.371-13.408l0.001,0.002
		c1.626-1.14,3.493-1.792,5.482-1.792c6.28,0,11.372,6.47,11.372,14.45c0,6.367-3.245,11.76-7.744,13.686l0.02,0.058l-12.592,5.276
		l11.453,5.701l5.78-2.913c1.5-0.756,3.345-0.147,4.101,1.353c0.756,1.5,0.147,3.345-1.353,4.101l-1.701,0.858l18.713,9.315
		c0.104-0.07,0.203-0.145,0.317-0.202l7.197-3.627c1.5-0.756,3.345-0.147,4.101,1.353c0.756,1.5,0.147,3.345-1.353,4.101
		l-3.477,1.752l22.664,11.282c0.006-0.003,0.011-0.008,0.017-0.011l7.197-3.627c1.5-0.756,3.345-0.147,4.101,1.353
		c0.756,1.5,0.147,3.345-1.353,4.101l-3.138,1.581l19.417,9.665c0.467-9.133-2.852-16.163-2.852-16.163l-88.483-74.285
		c-1.247,0.277-2.518,0.558-3.811,0.841C317.028,185.015,316.692,185.089,316.344,185.165z"/>
	<path style="fill:#525774;" d="M143.207,211.062c-1.117,0.077-2.234,0.148-3.351,0.22c-0.861,0.056-1.721,0.112-2.581,0.165
		c-1.098,0.068-2.195,0.131-3.293,0.194c-0.881,0.051-1.761,0.101-2.642,0.149c-1.09,0.059-2.179,0.115-3.269,0.169
		c-0.886,0.044-1.771,0.087-2.657,0.129c-1.087,0.051-2.174,0.099-3.261,0.145c-0.889,0.038-1.778,0.073-2.667,0.107
		c-1.08,0.042-2.16,0.082-3.239,0.119c-0.308,0.01-0.617,0.024-0.925,0.034c0.006-0.002,0.013-0.004,0.019-0.005
		c-5.16,0.17-10.308,0.287-15.433,0.341l68.881,13.413c-0.281-4.384-2.252-7.557-2.252-7.557l-19.594-7.89
		c-0.425,0.031-0.851,0.061-1.276,0.091C144.846,210.946,144.027,211.006,143.207,211.062z"/>
	<path style="fill:#B3BDD0;" d="M367.224,119.608c-0.237-0.769-0.516-1.502-0.816-2.217c-10.237,1.696-19.703,2.664-25.066,3.133
		c-2.059,0.18-3.55-1.92-2.701-3.804l2.328-5.172c0.308-0.685,0.89-1.215,1.602-1.454c5.632-1.891,10.581-3.233,14.768-4.19
		c-3.45-2.848-7.324-5.316-11.039-7.891c-4.67-0.52-7.321-0.535-7.321-0.535c-19.332-1.757-32.806,4.687-32.806,4.687l-80.297,26.75
		l33.829,15.355l-60.925,18.746l-21.703-15.07l-6.809,2.853c0,0-4.451,1.278-8.941-0.38L75.36,179.057
		c-0.868,0.273-1.689,0.551-2.488,0.83l38.618,9.759l-47.618,8.727l-10.024-4.618c-0.143,0.48-0.163,0.755-0.163,0.755
		c-12.888,22.474,26.948,18.224,26.948,18.224c6.374,0.137,12.807,0.163,19.274,0.095c5.125-0.054,10.273-0.17,15.433-0.341
		c29.44-8.358,58.938-16.511,88.462-24.566c27.972-7.632,56.527-12.937,84.545-20.399c14.123-3.761,28.126-8.025,41.78-13.251
		c9.587-3.669,19.736-7.49,28.041-13.667C364.926,135.581,369.901,128.283,367.224,119.608z"/>
	<path style="fill:#97B0C8;" d="M372.925,103.543c-0.015-0.005-0.031-0.009-0.046-0.013c-0.665-0.197-1.323-0.388-1.974-0.572
		c-0.193-0.055-0.387-0.11-0.578-0.164c-0.796-0.223-1.583-0.437-2.356-0.641c-0.14-0.037-0.277-0.072-0.417-0.108
		c-0.648-0.17-1.288-0.333-1.919-0.49c-0.206-0.051-0.412-0.103-0.617-0.153c-0.741-0.182-1.473-0.357-2.189-0.523
		c-0.021-0.005-0.041-0.009-0.062-0.014c-0.704-0.162-1.391-0.314-2.069-0.461c-0.193-0.042-0.384-0.082-0.575-0.123
		c-0.566-0.12-1.123-0.236-1.671-0.346c-0.128-0.026-0.26-0.053-0.387-0.079c-0.646-0.128-1.275-0.249-1.893-0.364
		c-0.173-0.032-0.342-0.063-0.514-0.094c-0.478-0.087-0.948-0.171-1.409-0.25c-0.162-0.028-0.327-0.057-0.487-0.084
		c-0.572-0.097-1.131-0.188-1.674-0.273c-0.136-0.021-0.266-0.041-0.4-0.061c-0.427-0.066-0.844-0.128-1.252-0.187
		c-0.168-0.024-0.336-0.049-0.501-0.072c-0.456-0.064-0.901-0.125-1.332-0.181c-0.117-0.015-0.231-0.03-0.346-0.044
		c-0.398-0.051-0.784-0.098-1.159-0.143c-0.165-0.02-0.326-0.038-0.487-0.056c-0.104-0.012-0.214-0.025-0.316-0.037
		c0.001,0.001,0.002,0.001,0.003,0.002c3.715,2.575,7.589,5.042,11.039,7.891C367.209,103.647,372.809,103.545,372.925,103.543z"/>
	<path style="fill:#97B0C8;" d="M260.932,196.126c0.625-0.111,1.243-0.222,1.864-0.333c1.036-0.185,2.074-0.37,3.1-0.556
		c0.53-0.096,1.052-0.192,1.579-0.288c4.107-0.748,8.13-1.498,12.052-2.247c0.142-0.027,0.287-0.055,0.429-0.082
		c1.048-0.201,2.079-0.401,3.113-0.601c0.508-0.098,1.022-0.197,1.527-0.296c0.953-0.186,1.893-0.371,2.834-0.556
		c0.57-0.112,1.142-0.225,1.708-0.337c0.908-0.18,1.804-0.359,2.699-0.538c0.576-0.115,1.154-0.231,1.725-0.346
		c0.88-0.177,1.751-0.354,2.618-0.53c0.571-0.116,1.141-0.232,1.707-0.348c0.855-0.175,1.704-0.35,2.547-0.524
		c0.553-0.114,1.102-0.228,1.649-0.342c0.838-0.174,1.672-0.348,2.497-0.521c0.538-0.113,1.069-0.225,1.601-0.337
		c0.817-0.172,1.632-0.344,2.435-0.515c0.506-0.108,1.003-0.214,1.504-0.321c0.813-0.174,1.626-0.348,2.425-0.52
		c0.458-0.099,0.906-0.197,1.359-0.295c0.818-0.177,1.639-0.355,2.44-0.53c0.348-0.076,0.684-0.151,1.029-0.226
		c2.907-0.637,5.7-1.259,8.372-1.863c0.344-0.077,0.695-0.156,1.035-0.233c0.707-0.16,1.395-0.317,2.084-0.475
		c0.414-0.094,0.833-0.19,1.24-0.283c0.645-0.148,1.273-0.293,1.902-0.438c0.43-0.099,0.862-0.199,1.284-0.297
		c0.589-0.136,1.165-0.271,1.739-0.405c0.444-0.104,0.886-0.207,1.321-0.309c0.545-0.128,1.082-0.254,1.613-0.379
		c0.429-0.101,0.852-0.201,1.271-0.301c0.526-0.125,1.046-0.248,1.557-0.37c0.389-0.093,0.77-0.184,1.151-0.275
		c0.503-0.121,1.005-0.241,1.492-0.358c0.384-0.092,0.755-0.182,1.129-0.273c0.465-0.112,0.931-0.225,1.38-0.334
		c0.335-0.081,0.655-0.16,0.981-0.239c0.461-0.113,0.927-0.226,1.369-0.335c0.331-0.081,0.642-0.158,0.962-0.237
		c0.401-0.099,0.81-0.2,1.194-0.295c0.263-0.065,0.505-0.126,0.76-0.189c0.811-0.202,1.583-0.395,2.315-0.579
		c0.247-0.062,0.505-0.126,0.742-0.186c0.317-0.08,0.61-0.154,0.91-0.23c0.268-0.068,0.542-0.137,0.797-0.202
		c0.28-0.071,0.541-0.138,0.806-0.205c0.245-0.063,0.491-0.125,0.722-0.185c0.237-0.061,0.459-0.118,0.682-0.175
		c0.237-0.061,0.469-0.121,0.689-0.178c0.198-0.051,0.388-0.101,0.573-0.148c0.202-0.052,0.395-0.103,0.58-0.151
		c0.169-0.044,0.333-0.087,0.488-0.127c0.189-0.049,0.362-0.095,0.53-0.139c0.117-0.031,0.236-0.062,0.342-0.09
		c0.169-0.045,0.316-0.084,0.459-0.121c0.08-0.021,0.167-0.044,0.239-0.063c0.115-0.031,0.207-0.055,0.301-0.08
		c0.077-0.021,0.166-0.044,0.228-0.061c0.253-0.068,0.385-0.104,0.385-0.104c41.007-12.496,50.966-36.466,50.966-36.466
		c7.616-14.306-9.373-21.274-9.373-21.274c-1.015-0.522-2.022-1.024-3.025-1.518c-0.269-0.132-0.538-0.263-0.807-0.394
		c-0.839-0.408-1.674-0.806-2.505-1.195c-0.173-0.081-0.346-0.164-0.519-0.244c-0.977-0.453-1.947-0.892-2.91-1.319
		c-0.24-0.106-0.477-0.209-0.716-0.313c-0.272-0.119-0.545-0.24-0.816-0.357c-7.999,2.837-17.749,4.931-26.886,6.444
		c0.3,0.715,0.579,1.448,0.816,2.217c2.678,8.675-2.298,15.973-9.055,20.998c-8.305,6.177-18.453,9.997-28.041,13.667
		c-13.655,5.226-27.658,9.49-41.78,13.251c-28.019,7.462-56.573,12.767-84.545,20.399c-29.524,8.055-59.022,16.208-88.462,24.566
		c-0.006,0.002-0.013,0.003-0.019,0.005c0.308-0.01,0.617-0.024,0.925-0.034c1.079-0.037,2.159-0.078,3.239-0.119
		c0.889-0.035,1.777-0.07,2.667-0.107c1.087-0.046,2.174-0.094,3.261-0.145c0.886-0.041,1.771-0.084,2.657-0.129
		c1.09-0.055,2.18-0.11,3.269-0.169c0.881-0.048,1.762-0.098,2.642-0.149c1.098-0.063,2.196-0.126,3.293-0.194
		c0.861-0.053,1.721-0.109,2.581-0.165c1.117-0.072,2.234-0.144,3.351-0.22c0.82-0.056,1.639-0.117,2.459-0.175
		c1.158-0.083,2.316-0.164,3.473-0.251c0.657-0.049,1.312-0.103,1.969-0.154c4.426-0.344,8.842-0.72,13.243-1.126
		c0.697-0.064,1.396-0.126,2.092-0.192c1.177-0.111,2.351-0.227,3.526-0.342c0.779-0.076,1.559-0.151,2.337-0.23
		c1.143-0.115,2.283-0.233,3.422-0.352c0.804-0.084,1.609-0.167,2.411-0.252c1.125-0.12,2.248-0.242,3.37-0.365
		c0.811-0.089,1.622-0.178,2.431-0.269c1.117-0.125,2.231-0.252,3.344-0.38c0.805-0.093,1.609-0.186,2.413-0.281
		c1.119-0.131,2.237-0.264,3.352-0.399c0.781-0.094,1.56-0.19,2.34-0.285c1.127-0.138,2.254-0.277,3.377-0.419
		c0.76-0.096,1.518-0.193,2.276-0.29c1.137-0.145,2.274-0.291,3.407-0.439c0.708-0.093,1.413-0.187,2.119-0.281
		c1.175-0.156,2.35-0.312,3.519-0.471c0.578-0.079,1.151-0.159,1.728-0.238c4.468-0.614,8.892-1.248,13.262-1.898
		c0.404-0.06,0.811-0.119,1.214-0.179c1.191-0.178,2.373-0.359,3.555-0.54c0.631-0.096,1.265-0.192,1.894-0.289
		c1.121-0.173,2.234-0.348,3.347-0.522c0.673-0.106,1.348-0.211,2.019-0.317c1.089-0.173,2.171-0.347,3.253-0.521
		c0.684-0.11,1.368-0.22,2.049-0.331c1.068-0.174,2.131-0.349,3.192-0.524c0.68-0.112,1.357-0.225,2.033-0.338
		c1.051-0.175,2.097-0.351,3.139-0.527c0.674-0.114,1.346-0.229,2.016-0.343c1.041-0.178,2.078-0.356,3.11-0.535
		c0.212-0.037,0.427-0.073,0.639-0.11c0.436-0.076,0.864-0.152,1.297-0.228C258.868,196.489,259.905,196.307,260.932,196.126z"/>
	<g>
		<path style="fill:#525774;" d="M310.337,122.995c0.231,1.605,1.733,2.729,3.339,2.498c1.605-0.231,2.73-1.733,2.499-3.339
			l-0.487-3.382c-0.231-1.605-1.733-2.729-3.339-2.498c-1.605,0.231-2.729,1.733-2.499,3.339L310.337,122.995z"/>
		<path style="fill:#525774;" d="M300.182,126.119c0.231,1.605,1.733,2.73,3.339,2.499c1.605-0.231,2.73-1.733,2.499-3.339
			l-0.487-3.382c-0.231-1.605-1.733-2.73-3.339-2.498c-1.605,0.231-2.729,1.733-2.499,3.339L300.182,126.119z"/>
		<path style="fill:#525774;" d="M290.028,129.244c0.231,1.605,1.734,2.729,3.339,2.498c1.605-0.231,2.73-1.733,2.499-3.339
			l-0.487-3.382c-0.231-1.605-1.734-2.73-3.339-2.499c-1.605,0.231-2.73,1.734-2.499,3.339L290.028,129.244z"/>
		<path style="fill:#525774;" d="M279.874,132.368c0.231,1.605,1.733,2.73,3.339,2.499c1.605-0.231,2.729-1.733,2.499-3.339
			l-0.487-3.382c-0.231-1.605-1.733-2.729-3.339-2.498c-1.605,0.231-2.73,1.733-2.499,3.339L279.874,132.368z"/>
		<path style="fill:#525774;" d="M269.72,135.492c0.231,1.605,1.734,2.73,3.339,2.499c1.605-0.231,2.729-1.733,2.499-3.339
			l-0.487-3.382c-0.231-1.605-1.734-2.73-3.339-2.499c-1.605,0.231-2.73,1.733-2.499,3.339L269.72,135.492z"/>
		<path style="fill:#525774;" d="M262.905,141.115c1.605-0.231,2.729-1.733,2.499-3.339l-0.487-3.382
			c-0.231-1.605-1.733-2.73-3.339-2.499c-1.605,0.231-2.73,1.733-2.498,3.339l0.487,3.382
			C259.797,140.222,261.299,141.346,262.905,141.115z"/>
		<path style="fill:#525774;" d="M178.333,163.612c0.231,1.605,1.733,2.73,3.339,2.499c1.605-0.231,2.73-1.733,2.499-3.339
			l-0.487-3.382c-0.231-1.605-1.733-2.73-3.339-2.499c-1.605,0.231-2.73,1.733-2.499,3.339L178.333,163.612z"/>
		<path style="fill:#525774;" d="M168.178,166.736c0.231,1.605,1.733,2.73,3.339,2.499c1.605-0.231,2.729-1.733,2.498-3.339
			l-0.486-3.382c-0.231-1.605-1.734-2.73-3.339-2.499c-1.605,0.231-2.729,1.733-2.498,3.339L168.178,166.736z"/>
		<path style="fill:#525774;" d="M158.024,169.861c0.231,1.605,1.734,2.729,3.339,2.498c1.605-0.231,2.73-1.733,2.499-3.339
			l-0.487-3.382c-0.231-1.605-1.733-2.729-3.339-2.498c-1.605,0.231-2.73,1.733-2.499,3.339L158.024,169.861z"/>
		<path style="fill:#525774;" d="M147.87,172.985c0.231,1.605,1.733,2.73,3.339,2.499c1.605-0.231,2.729-1.733,2.499-3.339
			l-0.487-3.382c-0.231-1.605-1.733-2.73-3.339-2.499c-1.605,0.231-2.73,1.733-2.498,3.339L147.87,172.985z"/>
		<path style="fill:#525774;" d="M137.716,176.109c0.231,1.605,1.734,2.729,3.339,2.498c1.605-0.231,2.73-1.733,2.499-3.339
			l-0.487-3.382c-0.231-1.605-1.734-2.73-3.339-2.499c-1.605,0.231-2.73,1.733-2.499,3.339L137.716,176.109z"/>
		<path style="fill:#525774;" d="M127.562,179.234c0.231,1.605,1.733,2.73,3.339,2.499c1.605-0.231,2.73-1.734,2.499-3.339
			l-0.487-3.382c-0.231-1.605-1.733-2.73-3.339-2.499c-1.605,0.231-2.729,1.733-2.498,3.339L127.562,179.234z"/>
		<path style="fill:#525774;" d="M117.408,182.358c0.231,1.605,1.733,2.73,3.339,2.499c1.605-0.231,2.73-1.733,2.498-3.339
			l-0.487-3.382c-0.231-1.605-1.733-2.73-3.339-2.499c-1.605,0.231-2.729,1.734-2.498,3.339L117.408,182.358z"/>
	</g>
	<path style="fill:#525774;" d="M199.199,138.61l0.02,0.058l-22.143,9.277l21.703,15.07l60.925-18.746l-33.829-15.355l-19.622-8.906
		c0.438,1.537,0.689,3.187,0.689,4.915C206.943,131.291,203.699,136.685,199.199,138.61z"/>
	<path style="fill:#525774;" d="M159.718,125.671l29.915-13.206L86.843,65.809c-14.379-0.98-25.15,2.017-25.15,2.017l25.008,17.365
		l4.541-2.288c1.5-0.756,3.345-0.147,4.101,1.353c0.756,1.5,0.147,3.346-1.353,4.101l-1.582,0.797l18.465,12.822l4.782-2.41
		c1.5-0.756,3.345-0.147,4.101,1.353c0.756,1.5,0.147,3.345-1.353,4.101l-1.824,0.919l18.288,12.699l4.553-2.295
		c1.5-0.756,3.345-0.147,4.101,1.353c0.756,1.5,0.147,3.345-1.353,4.101l-1.595,0.804l13.204,9.168
		C154.787,129.625,156.599,127.475,159.718,125.671z"/>
	<path style="fill:#525774;" d="M111.491,189.647l-38.618-9.759L27.93,168.531c0,0-9.287,0.865-18.66,4.686l44.578,20.538
		l10.024,4.618L111.491,189.647z"/>
	<path style="fill:#525774;" d="M357.338,105.904c-4.187,0.957-9.136,2.299-14.768,4.19c-0.712,0.239-1.294,0.769-1.602,1.454
		l-2.328,5.172c-0.848,1.884,0.643,3.984,2.701,3.804c5.363-0.469,14.829-1.437,25.066-3.133c9.136-1.514,18.887-3.607,26.886-6.444
		c0.001,0,0.001,0,0.001-0.001c-0.685-0.31-1.488-0.649-2.367-1.004c-6.394-2.582-16.97-6.063-17.918-6.374
		c-0.006-0.002-0.016-0.005-0.021-0.007c-0.034-0.011-0.055-0.018-0.055-0.018s-0.006,0-0.007,0h-0.001
		C372.809,103.545,367.209,103.647,357.338,105.904z"/>
	<path style="fill:#373A52;" d="M170.267,150.799l6.809-2.853l22.143-9.277l-0.02-0.058c-1.141,0.488-2.358,0.764-3.628,0.764
		c-6.28,0-11.372-6.47-11.372-14.45c0-5.454,2.379-10.199,5.889-12.659l-0.001-0.002l-0.456,0.201l-29.915,13.206
		c-3.119,1.804-4.931,3.953-5.937,6.099c-2.479,5.285-0.044,10.544-0.044,10.544c1.74,4.716,4.673,7.028,7.589,8.105
		C165.816,152.076,170.267,150.799,170.267,150.799z"/>
	<path style="fill:#464A65;" d="M206.254,120.009c-1.585-5.557-5.763-9.535-10.682-9.535c-1.988,0-3.856,0.652-5.482,1.792
		c-3.51,2.46-5.889,7.205-5.889,12.659c0,7.981,5.091,14.45,11.372,14.45c1.27,0,2.487-0.276,3.628-0.764
		c4.499-1.926,7.744-7.319,7.744-13.686C206.943,123.195,206.692,121.545,206.254,120.009z"/>
	<path style="fill:#373A52;" d="M201.636,124.924c0-4.256-2.715-7.706-6.064-7.706c-3.349,0-6.064,3.45-6.064,7.706
		c0,4.256,2.715,7.706,6.064,7.706C198.921,132.63,201.636,129.18,201.636,124.924z"/>
	<path style="fill:#373A52;" d="M332.407,223.075c-1.14,0.488-2.357,0.764-3.627,0.764c-6.281,0-11.372-6.469-11.372-14.45
		c0-5.454,2.38-10.199,5.89-12.659l-0.001-0.002l-30.371,13.408c-1.589,0.919-2.833,1.929-3.811,2.981
		c-5.672,6.101-2.17,13.661-2.17,13.661c4.419,11.977,16.53,8.485,16.53,8.485l16.36-6.855l12.592-5.276L332.407,223.075z"/>
	<path style="fill:#464A65;" d="M328.78,194.938c-1.988,0-3.856,0.652-5.482,1.792c-3.51,2.46-5.89,7.205-5.89,12.659
		c0,7.981,5.091,14.45,11.372,14.45c1.27,0,2.487-0.276,3.627-0.764c4.5-1.926,7.744-7.319,7.744-13.686
		C340.152,201.408,335.06,194.938,328.78,194.938z"/>
	<path style="fill:#373A52;" d="M328.78,217.094c3.349,0,6.064-3.45,6.064-7.706c0-4.256-2.715-7.706-6.064-7.706
		c-3.349,0-6.064,3.45-6.064,7.706C322.716,213.644,325.431,217.094,328.78,217.094z"/>
	<path style="fill:#373A52;" d="M95.344,84.256c-0.756-1.5-2.601-2.109-4.101-1.353l-4.541,2.288l-2.656,1.338
		c-1.5,0.756-2.109,2.601-1.353,4.101c0.756,1.5,2.602,2.109,4.101,1.353l5.615-2.829l1.582-0.797
		C95.491,87.602,96.1,85.756,95.344,84.256z"/>
	<path style="fill:#373A52;" d="M119.758,100.919c-0.756-1.5-2.601-2.109-4.101-1.353l-4.782,2.41l-2.414,1.217
		c-1.5,0.756-2.109,2.602-1.353,4.101c0.756,1.5,2.601,2.109,4.101,1.353l5.373-2.708l1.824-0.919
		C119.905,104.265,120.514,102.419,119.758,100.919z"/>
	<path style="fill:#373A52;" d="M143.524,117.697c-0.756-1.5-2.601-2.109-4.101-1.353l-4.553,2.295l-2.643,1.332
		c-1.5,0.756-2.109,2.602-1.353,4.101c0.756,1.5,2.601,2.108,4.101,1.353l5.602-2.823l1.595-0.804
		C143.672,121.042,144.28,119.196,143.524,117.697z"/>
	<path style="fill:#373A52;" d="M341.169,232.549c-0.756-1.5-2.601-2.109-4.101-1.353l-5.78,2.913l-1.416,0.714
		c-1.5,0.756-2.109,2.601-1.353,4.101c0.756,1.5,2.601,2.109,4.101,1.353l5.495-2.769l1.701-0.858
		C341.317,235.894,341.925,234.049,341.169,232.549z"/>
	<path style="fill:#373A52;" d="M368.443,244.347c-0.756-1.5-2.601-2.109-4.101-1.353l-7.197,3.627
		c-0.114,0.058-0.213,0.132-0.317,0.202c-1.258,0.844-1.734,2.513-1.036,3.899c0.756,1.5,2.601,2.108,4.101,1.353l3.719-1.874
		l3.477-1.752C368.59,247.692,369.199,245.847,368.443,244.347z"/>
	<path style="fill:#373A52;" d="M397.593,259.197c-0.756-1.5-2.601-2.109-4.101-1.353l-7.197,3.627
		c-0.006,0.003-0.011,0.008-0.017,0.011c-1.486,0.762-2.088,2.597-1.335,4.09c0.756,1.5,2.601,2.109,4.101,1.353l4.059-2.046
		l3.138-1.581C397.74,262.543,398.349,260.697,397.593,259.197z"/>
</g>
</svg>
